G04 EAGLE Gerber RS-274X export*
G75*
%MOMM*%
%FSLAX34Y34*%
%LPD*%
%IN*%
%IPPOS*%
%AMOC8*
5,1,8,0,0,1.08239X$1,22.5*%
G01*
%ADD10C,0.254000*%


D10*
X-1270Y707390D02*
X0Y0D01*
X928370Y0D01*
X927100Y707390D01*
X-1270Y707390D01*
X30320Y685363D02*
X30244Y684494D01*
X30092Y683634D01*
X29866Y682790D01*
X29568Y681970D01*
X29199Y681178D01*
X28762Y680422D01*
X28261Y679707D01*
X27700Y679038D01*
X27082Y678420D01*
X26413Y677859D01*
X25698Y677358D01*
X24942Y676921D01*
X24150Y676552D01*
X23330Y676254D01*
X22486Y676028D01*
X21627Y675876D01*
X20757Y675800D01*
X19883Y675800D01*
X19014Y675876D01*
X18154Y676028D01*
X17310Y676254D01*
X16490Y676552D01*
X15698Y676921D01*
X14942Y677358D01*
X14227Y677859D01*
X13558Y678420D01*
X12940Y679038D01*
X12379Y679707D01*
X11878Y680422D01*
X11441Y681178D01*
X11072Y681970D01*
X10774Y682790D01*
X10548Y683634D01*
X10396Y684494D01*
X10320Y685363D01*
X10320Y686237D01*
X10396Y687107D01*
X10548Y687966D01*
X10774Y688810D01*
X11072Y689630D01*
X11441Y690422D01*
X11878Y691178D01*
X12379Y691893D01*
X12940Y692562D01*
X13558Y693180D01*
X14227Y693741D01*
X14942Y694242D01*
X15698Y694679D01*
X16490Y695048D01*
X17310Y695346D01*
X18154Y695572D01*
X19014Y695724D01*
X19883Y695800D01*
X20757Y695800D01*
X21627Y695724D01*
X22486Y695572D01*
X23330Y695346D01*
X24150Y695048D01*
X24942Y694679D01*
X25698Y694242D01*
X26413Y693741D01*
X27082Y693180D01*
X27700Y692562D01*
X28261Y691893D01*
X28762Y691178D01*
X29199Y690422D01*
X29568Y689630D01*
X29866Y688810D01*
X30092Y687966D01*
X30244Y687107D01*
X30320Y686237D01*
X30320Y685363D01*
X915510Y684093D02*
X915434Y683224D01*
X915282Y682364D01*
X915056Y681520D01*
X914758Y680700D01*
X914389Y679908D01*
X913952Y679152D01*
X913451Y678437D01*
X912890Y677768D01*
X912272Y677150D01*
X911603Y676589D01*
X910888Y676088D01*
X910132Y675651D01*
X909340Y675282D01*
X908520Y674984D01*
X907676Y674758D01*
X906817Y674606D01*
X905947Y674530D01*
X905073Y674530D01*
X904204Y674606D01*
X903344Y674758D01*
X902500Y674984D01*
X901680Y675282D01*
X900888Y675651D01*
X900132Y676088D01*
X899417Y676589D01*
X898748Y677150D01*
X898130Y677768D01*
X897569Y678437D01*
X897068Y679152D01*
X896631Y679908D01*
X896262Y680700D01*
X895964Y681520D01*
X895738Y682364D01*
X895586Y683224D01*
X895510Y684093D01*
X895510Y684967D01*
X895586Y685837D01*
X895738Y686696D01*
X895964Y687540D01*
X896262Y688360D01*
X896631Y689152D01*
X897068Y689908D01*
X897569Y690623D01*
X898130Y691292D01*
X898748Y691910D01*
X899417Y692471D01*
X900132Y692972D01*
X900888Y693409D01*
X901680Y693778D01*
X902500Y694076D01*
X903344Y694302D01*
X904204Y694454D01*
X905073Y694530D01*
X905947Y694530D01*
X906817Y694454D01*
X907676Y694302D01*
X908520Y694076D01*
X909340Y693778D01*
X910132Y693409D01*
X910888Y692972D01*
X911603Y692471D01*
X912272Y691910D01*
X912890Y691292D01*
X913451Y690623D01*
X913952Y689908D01*
X914389Y689152D01*
X914758Y688360D01*
X915056Y687540D01*
X915282Y686696D01*
X915434Y685837D01*
X915510Y684967D01*
X915510Y684093D01*
X30320Y19883D02*
X30244Y19014D01*
X30092Y18154D01*
X29866Y17310D01*
X29568Y16490D01*
X29199Y15698D01*
X28762Y14942D01*
X28261Y14227D01*
X27700Y13558D01*
X27082Y12940D01*
X26413Y12379D01*
X25698Y11878D01*
X24942Y11441D01*
X24150Y11072D01*
X23330Y10774D01*
X22486Y10548D01*
X21627Y10396D01*
X20757Y10320D01*
X19883Y10320D01*
X19014Y10396D01*
X18154Y10548D01*
X17310Y10774D01*
X16490Y11072D01*
X15698Y11441D01*
X14942Y11878D01*
X14227Y12379D01*
X13558Y12940D01*
X12940Y13558D01*
X12379Y14227D01*
X11878Y14942D01*
X11441Y15698D01*
X11072Y16490D01*
X10774Y17310D01*
X10548Y18154D01*
X10396Y19014D01*
X10320Y19883D01*
X10320Y20757D01*
X10396Y21627D01*
X10548Y22486D01*
X10774Y23330D01*
X11072Y24150D01*
X11441Y24942D01*
X11878Y25698D01*
X12379Y26413D01*
X12940Y27082D01*
X13558Y27700D01*
X14227Y28261D01*
X14942Y28762D01*
X15698Y29199D01*
X16490Y29568D01*
X17310Y29866D01*
X18154Y30092D01*
X19014Y30244D01*
X19883Y30320D01*
X20757Y30320D01*
X21627Y30244D01*
X22486Y30092D01*
X23330Y29866D01*
X24150Y29568D01*
X24942Y29199D01*
X25698Y28762D01*
X26413Y28261D01*
X27082Y27700D01*
X27700Y27082D01*
X28261Y26413D01*
X28762Y25698D01*
X29199Y24942D01*
X29568Y24150D01*
X29866Y23330D01*
X30092Y22486D01*
X30244Y21627D01*
X30320Y20757D01*
X30320Y19883D01*
X914240Y19883D02*
X914164Y19014D01*
X914012Y18154D01*
X913786Y17310D01*
X913488Y16490D01*
X913119Y15698D01*
X912682Y14942D01*
X912181Y14227D01*
X911620Y13558D01*
X911002Y12940D01*
X910333Y12379D01*
X909618Y11878D01*
X908862Y11441D01*
X908070Y11072D01*
X907250Y10774D01*
X906406Y10548D01*
X905547Y10396D01*
X904677Y10320D01*
X903803Y10320D01*
X902934Y10396D01*
X902074Y10548D01*
X901230Y10774D01*
X900410Y11072D01*
X899618Y11441D01*
X898862Y11878D01*
X898147Y12379D01*
X897478Y12940D01*
X896860Y13558D01*
X896299Y14227D01*
X895798Y14942D01*
X895361Y15698D01*
X894992Y16490D01*
X894694Y17310D01*
X894468Y18154D01*
X894316Y19014D01*
X894240Y19883D01*
X894240Y20757D01*
X894316Y21627D01*
X894468Y22486D01*
X894694Y23330D01*
X894992Y24150D01*
X895361Y24942D01*
X895798Y25698D01*
X896299Y26413D01*
X896860Y27082D01*
X897478Y27700D01*
X898147Y28261D01*
X898862Y28762D01*
X899618Y29199D01*
X900410Y29568D01*
X901230Y29866D01*
X902074Y30092D01*
X902934Y30244D01*
X903803Y30320D01*
X904677Y30320D01*
X905547Y30244D01*
X906406Y30092D01*
X907250Y29866D01*
X908070Y29568D01*
X908862Y29199D01*
X909618Y28762D01*
X910333Y28261D01*
X911002Y27700D01*
X911620Y27082D01*
X912181Y26413D01*
X912682Y25698D01*
X913119Y24942D01*
X913488Y24150D01*
X913786Y23330D01*
X914012Y22486D01*
X914164Y21627D01*
X914240Y20757D01*
X914240Y19883D01*
M02*
