G04 EAGLE Gerber RS-274X export*
G75*
%MOMM*%
%FSLAX34Y34*%
%LPD*%
%INTop Copper*%
%IPPOS*%
%AMOC8*
5,1,8,0,0,1.08239X$1,22.5*%
G01*
%ADD10R,1.879600X1.879600*%
%ADD11C,1.879600*%
%ADD12C,1.524000*%
%ADD13C,0.756400*%
%ADD14C,0.152400*%


D10*
X683260Y589430D03*
D11*
X657860Y589430D03*
X632460Y589430D03*
X481584Y608838D03*
X481584Y673862D03*
X526796Y608838D03*
X526796Y673862D03*
D12*
X143510Y549910D02*
X128270Y549910D01*
X128270Y524510D02*
X143510Y524510D01*
X143510Y499110D02*
X128270Y499110D01*
X128270Y473710D02*
X143510Y473710D01*
X143510Y448310D02*
X128270Y448310D01*
X128270Y422910D02*
X143510Y422910D01*
X143510Y397510D02*
X128270Y397510D01*
X128270Y372110D02*
X143510Y372110D01*
X143510Y346710D02*
X128270Y346710D01*
X128270Y321310D02*
X143510Y321310D01*
X143510Y295910D02*
X128270Y295910D01*
X128270Y270510D02*
X143510Y270510D01*
X143510Y245110D02*
X128270Y245110D01*
X128270Y219710D02*
X143510Y219710D01*
X143510Y194310D02*
X128270Y194310D01*
X128270Y168910D02*
X143510Y168910D01*
X143510Y143510D02*
X128270Y143510D01*
X128270Y118110D02*
X143510Y118110D01*
X143510Y92710D02*
X128270Y92710D01*
X128270Y67310D02*
X143510Y67310D01*
D11*
X403860Y106680D03*
X429260Y106680D03*
X405130Y256540D03*
X430530Y256540D03*
X403860Y405130D03*
X429260Y405130D03*
X588010Y102870D03*
X613410Y102870D03*
X588010Y254000D03*
X613410Y254000D03*
X586740Y406400D03*
X612140Y406400D03*
X762000Y102870D03*
X787400Y102870D03*
X763270Y257810D03*
X788670Y257810D03*
X762000Y408940D03*
X787400Y408940D03*
X403860Y181610D03*
X429260Y181610D03*
X405130Y330200D03*
X430530Y330200D03*
X403860Y481330D03*
X429260Y481330D03*
X588010Y179070D03*
X613410Y179070D03*
X588010Y330200D03*
X613410Y330200D03*
X586740Y482600D03*
X612140Y482600D03*
X760730Y177800D03*
X786130Y177800D03*
X762000Y334010D03*
X787400Y334010D03*
X760730Y483870D03*
X786130Y483870D03*
D12*
X204470Y579120D02*
X204470Y594360D01*
X229870Y594360D02*
X229870Y579120D01*
X280670Y67310D02*
X295910Y67310D01*
X295910Y92710D02*
X280670Y92710D01*
X280670Y118110D02*
X295910Y118110D01*
X295910Y143510D02*
X280670Y143510D01*
X280670Y168910D02*
X295910Y168910D01*
X295910Y194310D02*
X280670Y194310D01*
X280670Y219710D02*
X295910Y219710D01*
X295910Y245110D02*
X280670Y245110D01*
X280670Y270510D02*
X295910Y270510D01*
X295910Y295910D02*
X280670Y295910D01*
X280670Y321310D02*
X295910Y321310D01*
X295910Y346710D02*
X280670Y346710D01*
X280670Y372110D02*
X295910Y372110D01*
X295910Y397510D02*
X280670Y397510D01*
X280670Y422910D02*
X295910Y422910D01*
X295910Y448310D02*
X280670Y448310D01*
X280670Y473710D02*
X295910Y473710D01*
X295910Y499110D02*
X280670Y499110D01*
X280670Y524510D02*
X295910Y524510D01*
X295910Y549910D02*
X280670Y549910D01*
D11*
X396494Y607568D03*
X396494Y672592D03*
X441706Y607568D03*
X441706Y672592D03*
X828040Y408940D03*
X904240Y408940D03*
X904240Y482600D03*
X828040Y482600D03*
X826770Y257810D03*
X902970Y257810D03*
X542290Y181610D03*
X466090Y181610D03*
X542290Y330200D03*
X466090Y330200D03*
X826770Y104140D03*
X902970Y104140D03*
X646430Y406400D03*
X722630Y406400D03*
X542290Y481330D03*
X466090Y481330D03*
X723900Y177800D03*
X647700Y177800D03*
X722630Y328930D03*
X646430Y328930D03*
X647700Y102870D03*
X723900Y102870D03*
X647700Y255270D03*
X723900Y255270D03*
X466090Y405130D03*
X542290Y405130D03*
X722630Y483870D03*
X646430Y483870D03*
X904240Y334010D03*
X828040Y334010D03*
X466090Y256540D03*
X542290Y256540D03*
X466090Y106680D03*
X542290Y106680D03*
X902970Y177800D03*
X826770Y177800D03*
D13*
X350520Y586740D03*
D14*
X382270Y586740D01*
D13*
X382270Y586740D03*
X547370Y586740D03*
D14*
X595630Y586740D01*
D13*
X595630Y586740D03*
D14*
X204470Y586740D02*
X204470Y322580D01*
X205740Y321310D01*
X288290Y321310D01*
X204470Y322580D02*
X204470Y270510D01*
X135890Y270510D01*
D13*
X204470Y270510D03*
D14*
X441706Y607568D02*
X441706Y622046D01*
X441960Y622300D01*
X527050Y622300D01*
X527050Y609092D01*
X526796Y608838D01*
X527050Y622300D02*
X632460Y622300D01*
X632460Y589430D01*
X526796Y608838D02*
X526796Y553974D01*
X527050Y553720D01*
D13*
X527050Y553720D03*
D14*
X481584Y552450D02*
X481584Y608838D01*
X334010Y397510D02*
X288290Y397510D01*
X354330Y552450D02*
X481584Y552450D01*
X354330Y552450D02*
X353060Y551180D01*
X334010Y551180D02*
X334010Y397510D01*
D13*
X334010Y551180D03*
X353060Y551180D03*
D14*
X396494Y559086D02*
X396748Y558800D01*
X396494Y559086D02*
X396494Y607568D01*
X396748Y558800D02*
X344170Y558800D01*
X344170Y372110D02*
X288290Y372110D01*
X344170Y372110D02*
X344170Y558800D01*
X393700Y106680D02*
X403860Y106680D01*
X393700Y106680D02*
X392430Y105410D01*
X392430Y33020D01*
X101600Y33020D01*
X101600Y92710D01*
X135890Y92710D01*
X135890Y67310D02*
X107950Y67310D01*
X107950Y43180D01*
X383540Y43180D01*
X383540Y256540D01*
X405130Y256540D01*
X403860Y405130D02*
X372110Y405130D01*
X372110Y67310D01*
X288290Y67310D01*
X588010Y64770D02*
X588010Y102870D01*
X588010Y64770D02*
X401320Y64770D01*
D13*
X401320Y64770D03*
X351790Y92710D03*
D14*
X288290Y92710D01*
X736600Y408940D02*
X762000Y408940D01*
X736600Y408940D02*
X735330Y407670D01*
X735330Y260364D01*
X735584Y260110D01*
X735584Y98030D02*
X735330Y97776D01*
X735330Y54610D01*
X735584Y98030D02*
X735584Y260110D01*
X735330Y54610D02*
X401320Y54610D01*
D13*
X401320Y54610D03*
X342900Y118110D03*
D14*
X288290Y118110D01*
X288290Y143510D02*
X359410Y143510D01*
D13*
X359410Y143510D03*
X396240Y143510D03*
D14*
X685800Y143510D01*
X687070Y144780D01*
D13*
X687070Y144780D03*
X687070Y447040D03*
D14*
X760730Y447040D01*
X760730Y483870D01*
X588010Y254000D02*
X560070Y254000D01*
X560070Y527050D01*
X363220Y527050D01*
X363220Y219710D01*
X288290Y219710D01*
X585470Y405130D02*
X586740Y406400D01*
X585470Y405130D02*
X568960Y405130D01*
X568960Y534670D01*
X354330Y534670D01*
X354330Y245110D01*
X288290Y245110D01*
X751840Y101600D02*
X762000Y102870D01*
X751840Y101600D02*
X751840Y34290D01*
X401320Y34290D01*
D13*
X401320Y34290D03*
X326672Y270510D03*
D14*
X288290Y270510D01*
X742950Y257810D02*
X763270Y257810D01*
X742950Y257810D02*
X742950Y44450D01*
X401320Y44450D01*
D13*
X401320Y44450D03*
X334010Y295910D03*
D14*
X288290Y295910D01*
X658161Y576580D02*
X657860Y577298D01*
X657860Y589430D01*
X325120Y576580D02*
X325120Y422910D01*
X288290Y422910D01*
X325120Y576580D02*
X382270Y576580D01*
D13*
X382270Y576580D03*
X547370Y576580D03*
D14*
X658161Y576580D01*
X759460Y177800D02*
X760730Y177800D01*
X759460Y177800D02*
X759460Y194310D01*
D13*
X759460Y194310D03*
X34290Y585470D03*
D14*
X34290Y219710D01*
X135890Y219710D01*
X762000Y334010D02*
X762000Y353060D01*
D13*
X762000Y353060D03*
X45720Y585470D03*
D14*
X45720Y245110D01*
X135890Y245110D01*
X586740Y482600D02*
X586740Y533400D01*
D13*
X586740Y533400D03*
D14*
X135890Y397510D02*
X55880Y397510D01*
X55880Y585470D01*
D13*
X55880Y585470D03*
D14*
X567690Y330200D02*
X588010Y330200D01*
D13*
X567690Y330200D03*
X67112Y585470D03*
D14*
X67112Y422910D01*
X135890Y422910D01*
X556994Y179070D02*
X588010Y179070D01*
D13*
X556994Y179070D03*
X77470Y585470D03*
D14*
X77470Y448310D01*
X135890Y448310D01*
X373380Y481330D02*
X403860Y481330D01*
D13*
X373380Y481330D03*
X87630Y585470D03*
D14*
X87630Y473710D01*
X135890Y473710D01*
X402590Y332740D02*
X402690Y332738D01*
X402789Y332732D01*
X402889Y332722D01*
X402987Y332709D01*
X403086Y332691D01*
X403183Y332670D01*
X403279Y332645D01*
X403375Y332616D01*
X403469Y332583D01*
X403562Y332547D01*
X403653Y332507D01*
X403743Y332463D01*
X403831Y332416D01*
X403917Y332366D01*
X404001Y332312D01*
X404083Y332255D01*
X404162Y332195D01*
X404240Y332131D01*
X404314Y332065D01*
X404386Y331996D01*
X404455Y331924D01*
X404521Y331850D01*
X404585Y331772D01*
X404645Y331693D01*
X404702Y331611D01*
X404756Y331527D01*
X404806Y331441D01*
X404853Y331353D01*
X404897Y331263D01*
X404937Y331172D01*
X404973Y331079D01*
X405006Y330985D01*
X405035Y330889D01*
X405060Y330793D01*
X405081Y330696D01*
X405099Y330597D01*
X405112Y330499D01*
X405122Y330399D01*
X405128Y330300D01*
X405130Y330200D01*
X402590Y332740D02*
X379730Y332740D01*
D13*
X379730Y332740D03*
X97790Y585470D03*
D14*
X97790Y499110D02*
X135890Y499110D01*
X97790Y499110D02*
X97790Y585470D01*
X389890Y181610D02*
X403860Y181610D01*
D13*
X389890Y181610D03*
X107950Y585470D03*
D14*
X107950Y524510D01*
X135890Y524510D01*
X787400Y408940D02*
X828040Y408940D01*
X826770Y257810D02*
X788670Y257810D01*
X787400Y102870D02*
X825500Y102870D01*
X826770Y104140D01*
X646430Y406400D02*
X612140Y406400D01*
X613410Y254000D02*
X646430Y254000D01*
X647700Y255270D01*
X647700Y102870D02*
X613410Y102870D01*
X466090Y405130D02*
X429260Y405130D01*
X430530Y256540D02*
X466090Y256540D01*
X466090Y106680D02*
X429260Y106680D01*
X786130Y177800D02*
X826770Y177800D01*
X828040Y334010D02*
X787400Y334010D01*
X645160Y482600D02*
X612140Y482600D01*
X645160Y482600D02*
X646430Y483870D01*
X645160Y330200D02*
X613410Y330200D01*
X645160Y330200D02*
X646430Y328930D01*
X646430Y179070D02*
X613410Y179070D01*
X646430Y179070D02*
X647700Y177800D01*
X466090Y481330D02*
X429260Y481330D01*
X430530Y330200D02*
X466090Y330200D01*
X466090Y181610D02*
X429260Y181610D01*
X786130Y483870D02*
X826770Y483870D01*
X828040Y482600D01*
M02*
