M48
;GenerationSoftware,Autodesk,EAGLE,9.3.0*%
;CreationDate,2019-06-02T19:25:41Z*%
FMAT,2
ICI,OFF
METRIC,TZ,000.000
T6C0.350
T5C0.813
T4C0.900
T3C1.016
T2C2.000
%
G90
M71
T2
X2032Y68580
X90551Y68453
X2032Y2032
X90424Y2032
T3
X63246Y58943
X13589Y16891
X13589Y19431
X13589Y21971
X13589Y24511
X13589Y27051
X13589Y29591
X13589Y32131
X44171Y67259
X68326Y58943
X65786Y58943
X13589Y14351
X48158Y60884
X48158Y67386
X52680Y60884
X52680Y67386
X13589Y54991
X13589Y52451
X13589Y49911
X13589Y47371
X13589Y44831
X13589Y42291
X13589Y39751
X13589Y37211
X13589Y34671
X28829Y37211
X20447Y58674
X22987Y58674
X28829Y6731
X28829Y9271
X28829Y11811
X28829Y14351
X28829Y16891
X28829Y19431
X28829Y21971
X28829Y24511
X28829Y27051
X28829Y29591
X28829Y32131
X28829Y34671
X28829Y39751
X28829Y42291
X28829Y44831
X28829Y47371
X28829Y49911
X28829Y52451
X28829Y54991
X39649Y60757
X39649Y67259
X44171Y60757
X13589Y6731
X13589Y9271
X13589Y11811
T4
X82677Y17780
X72263Y48387
X72263Y32893
X64643Y32893
X64770Y10287
X72390Y10287
X64770Y25527
X72390Y25527
X46609Y40513
X54229Y40513
X90424Y40894
X64643Y48387
X90424Y33401
X82804Y33401
X46609Y25654
X54229Y25654
X46609Y10668
X54229Y10668
X90297Y17780
X72390Y17780
X82804Y40894
X90424Y48260
X82804Y48260
X82677Y25781
X90297Y25781
X54229Y18161
X46609Y18161
X54229Y33020
X46609Y33020
X82677Y10414
X90297Y10414
X64643Y40640
X72263Y40640
X54229Y48133
X46609Y48133
X64770Y17780
T5
X76327Y25781
X78613Y48387
X76073Y48387
X78740Y33401
X76200Y33401
X78613Y17780
X61214Y48260
X40386Y10668
X42926Y10668
X40513Y25654
X43053Y25654
X40386Y40513
X42926Y40513
X58801Y10287
X61341Y10287
X58801Y25400
X61341Y25400
X58674Y40640
X61214Y40640
X76200Y10287
X78740Y10287
X76073Y17780
X76200Y40894
X78867Y25781
X58674Y48260
X61341Y33020
X58801Y33020
X61341Y17907
X58801Y17907
X42926Y48133
X40386Y48133
X43053Y33020
X40513Y33020
X42926Y18161
X40386Y18161
X78740Y40894
T6
X33401Y29591
X40132Y4445
X32667Y27051
X40132Y3429
X68707Y44704
X68707Y14478
X39624Y14351
X35941Y14351
X34290Y11811
X40132Y5461
X35179Y9271
X40132Y6477
X35306Y55118
X33401Y55118
X52705Y55372
X20447Y27051
X59563Y58674
X54737Y58674
X38227Y58674
X6711Y58547
X35052Y58674
X10795Y58547
X38989Y18161
X9779Y58547
X37973Y33274
X8763Y58547
X37338Y48133
X7747Y58547
X55699Y17907
X38227Y57658
X56769Y33020
X5588Y58547
X58674Y53340
X4572Y58547
X76200Y35306
X3429Y58547
X75946Y19431
X54737Y57658
M30